# xmcd
# Track frame offsets:
# 150
# 13282
# 21225
# 28385
# 41245
# 57237
# 68645
# 79075
# 90005
# 100352
# 110370
# 123297
# 134372
# 145252
# 156452
# 163320
# 173652
# 182815
# 193842
# 216142
#
# Disc length: 3138 seconds
# Revision: 0
# Processed by: cddbd v1.4PL0 Copyright (c) Steve Scherf et al.
# Submitted via: VisiTrax 2.9.5.180 - For more info visit www.synapsa.com
#
DISCID=200c4014
DTITLE=Cash McCall - Travellin' alone
DYEAR=1995
DGENRE=
TTITLE0=Cold cold wind
TTITLE1=Many are the words (I've left unspoken)
TTITLE2=If I wait
TTITLE3=Down in the valley
TTITLE4=Across the Missouri
TTITLE5=Cheatin' man
TTITLE6=Travellin' alone
TTITLE7=Tall dark stranger
TTITLE8=Home, home on the range
TTITLE9=Goin' out west
TTITLE10=(It's just)
TTITLE11=A phase you're going through
TTITLE12=Buenos noches
TTITLE13=Season for forgetting
TTITLE14=Red river valley
TTITLE15=Oh Susanna
TTITLE16=3.10 to uma
TTITLE17=Skip-to-ma-loo
TTITLE18=Rio Bravo
TTITLE19=Green leaves of summer
EXTD=
EXTT0=
EXTT1=
EXTT2=
EXTT3=
EXTT4=
EXTT5=
EXTT6=
EXTT7=
EXTT8=
EXTT9=
EXTT10=
EXTT11=
EXTT12=
EXTT13=
EXTT14=
EXTT15=
EXTT16=
EXTT17=
EXTT18=
EXTT19=
PLAYORDER=
